# xmcd
# Track frame offsets:
# 150
# 17699
# 32481
# 50770
# 73707
# 91656
# 109369
# 123766
# 141079
# 159736
# 173785
# 190169
# 207716
# 225348
# 247719
#
# Disc length: 3541 seconds
# Revision: 0
# Processed by: cddbd v1.5.1PL0 Copyright (c) Steve Scherf et al.
# Submitted via: VisiTrax 2.9.10.228 - For more info visit www.synapsa.com
#
DISCID=c40dd30f
DTITLE=Various Artist - CB60311
DYEAR=1900
DGENRE=Karaoke
TTITLE0=Brock, Chad - It's A Woman Thing
TTITLE1=Procter, Rachel - Days Like This
TTITLE2=Robison, Charlie - Walter
TTITLE3=Andrews, Jessica - Now
TTITLE4=Walker, Clay - Few Questions, A
TTITLE5=Loveless, Patty - On Your Way Home
TTITLE6=Wariner, Steve - I'm Your Man
TTITLE7=Wynonna - What The World Needs
TTITLE8=Daniels, Clint - Letter, The
TTITLE9=Carter, Carlene - Every Little Thing
TTITLE10=Rushlow  - Can't Be Your Friend
TTITLE11=Presley, Lisa Marie - Lights Out
TTITLE12=Currington, Billy - Walk A Little Straighter
TTITLE13=Johnson, Carolyn Dawn - Little Bit Of This, Little Bit Of That
TTITLE14=Walker, Tamara - Circle Of Love
EXTD=
EXTT0=
EXTT1=
EXTT2=
EXTT3=
EXTT4=
EXTT5=
EXTT6=
EXTT7=
EXTT8=
EXTT9=
EXTT10=
EXTT11=
EXTT12=
EXTT13=
EXTT14=
PLAYORDER=
